<mxfile host="app.diagrams.net" agent="Mozilla/5.0 (Windows NT 10.0; Win64; x64) AppleWebKit/537.36 (KHTML, like Gecko) Chrome/130.0.0.0 Safari/537.36 Edg/130.0.0.0" version="24.8.1">
  <diagram id="C5RBs43oDa-KdzZeNtuy" name="Page-1">
    <mxGraphModel dx="1869" dy="924" grid="1" gridSize="10" guides="1" tooltips="1" connect="1" arrows="1" fold="1" page="1" pageScale="1" pageWidth="827" pageHeight="1169" math="0" shadow="0">
      <root>
        <mxCell id="WIyWlLk6GJQsqaUBKTNV-0" />
        <mxCell id="WIyWlLk6GJQsqaUBKTNV-1" parent="WIyWlLk6GJQsqaUBKTNV-0" />
        <mxCell id="0slJHiL-0B2PbUMmb_t5-73" style="edgeStyle=orthogonalEdgeStyle;rounded=0;orthogonalLoop=1;jettySize=auto;html=1;entryX=0.5;entryY=0;entryDx=0;entryDy=0;" parent="WIyWlLk6GJQsqaUBKTNV-1" source="0slJHiL-0B2PbUMmb_t5-38" target="0slJHiL-0B2PbUMmb_t5-53" edge="1">
          <mxGeometry relative="1" as="geometry" />
        </mxCell>
        <mxCell id="0slJHiL-0B2PbUMmb_t5-67" value="" style="curved=1;endArrow=classic;html=1;rounded=0;exitX=0;exitY=0.5;exitDx=0;exitDy=0;entryX=0.5;entryY=0;entryDx=0;entryDy=0;" parent="WIyWlLk6GJQsqaUBKTNV-1" source="0slJHiL-0B2PbUMmb_t5-35" target="0slJHiL-0B2PbUMmb_t5-51" edge="1">
          <mxGeometry width="50" height="50" relative="1" as="geometry">
            <mxPoint x="550" y="585" as="sourcePoint" />
            <mxPoint x="520" y="865" as="targetPoint" />
            <Array as="points">
              <mxPoint x="520" y="585" />
              <mxPoint x="520" y="615" />
              <mxPoint x="520" y="685" />
            </Array>
          </mxGeometry>
        </mxCell>
        <mxCell id="0slJHiL-0B2PbUMmb_t5-59" style="edgeStyle=orthogonalEdgeStyle;rounded=0;orthogonalLoop=1;jettySize=auto;html=1;entryX=0.5;entryY=0;entryDx=0;entryDy=0;shadow=1;fillColor=#330000;" parent="WIyWlLk6GJQsqaUBKTNV-1" source="0slJHiL-0B2PbUMmb_t5-37" target="0slJHiL-0B2PbUMmb_t5-52" edge="1">
          <mxGeometry relative="1" as="geometry" />
        </mxCell>
        <mxCell id="0slJHiL-0B2PbUMmb_t5-11" value="Physical Layer" style="swimlane;whiteSpace=wrap;html=1;" parent="WIyWlLk6GJQsqaUBKTNV-1" vertex="1">
          <mxGeometry x="190" y="90" width="470" height="110" as="geometry" />
        </mxCell>
        <mxCell id="0slJHiL-0B2PbUMmb_t5-15" value="Vehicle Tracking Device 1" style="rounded=0;whiteSpace=wrap;html=1;" parent="0slJHiL-0B2PbUMmb_t5-11" vertex="1">
          <mxGeometry x="20" y="50" width="110" height="30" as="geometry" />
        </mxCell>
        <mxCell id="0slJHiL-0B2PbUMmb_t5-23" style="edgeStyle=orthogonalEdgeStyle;rounded=0;orthogonalLoop=1;jettySize=auto;html=1;" parent="0slJHiL-0B2PbUMmb_t5-11" source="0slJHiL-0B2PbUMmb_t5-16" edge="1">
          <mxGeometry relative="1" as="geometry">
            <mxPoint x="235" y="200" as="targetPoint" />
          </mxGeometry>
        </mxCell>
        <mxCell id="0slJHiL-0B2PbUMmb_t5-16" value="Vehicle Tracking Device 2" style="rounded=0;whiteSpace=wrap;html=1;" parent="0slJHiL-0B2PbUMmb_t5-11" vertex="1">
          <mxGeometry x="180" y="50" width="110" height="30" as="geometry" />
        </mxCell>
        <mxCell id="0slJHiL-0B2PbUMmb_t5-17" value="Vehicle Tracking Device 3" style="rounded=0;whiteSpace=wrap;html=1;" parent="0slJHiL-0B2PbUMmb_t5-11" vertex="1">
          <mxGeometry x="340" y="50" width="110" height="30" as="geometry" />
        </mxCell>
        <mxCell id="0slJHiL-0B2PbUMmb_t5-54" style="edgeStyle=orthogonalEdgeStyle;rounded=0;orthogonalLoop=1;jettySize=auto;html=1;entryX=0.5;entryY=0;entryDx=0;entryDy=0;" parent="WIyWlLk6GJQsqaUBKTNV-1" source="0slJHiL-0B2PbUMmb_t5-18" target="0slJHiL-0B2PbUMmb_t5-35" edge="1">
          <mxGeometry relative="1" as="geometry" />
        </mxCell>
        <mxCell id="0slJHiL-0B2PbUMmb_t5-18" value="Network" style="swimlane;whiteSpace=wrap;html=1;" parent="WIyWlLk6GJQsqaUBKTNV-1" vertex="1">
          <mxGeometry x="230" y="290" width="600" height="210" as="geometry" />
        </mxCell>
        <mxCell id="0slJHiL-0B2PbUMmb_t5-30" value="4G / 5G Network" style="rounded=0;whiteSpace=wrap;html=1;" parent="0slJHiL-0B2PbUMmb_t5-18" vertex="1">
          <mxGeometry x="30" y="30" width="540" height="70" as="geometry" />
        </mxCell>
        <mxCell id="0slJHiL-0B2PbUMmb_t5-31" value="Satellite Communication" style="rounded=0;whiteSpace=wrap;html=1;" parent="0slJHiL-0B2PbUMmb_t5-18" vertex="1">
          <mxGeometry x="240" y="50" width="120" height="35" as="geometry" />
        </mxCell>
        <mxCell id="zklYke0HYy3J-oZaXSR5-1" style="edgeStyle=orthogonalEdgeStyle;rounded=0;orthogonalLoop=1;jettySize=auto;html=1;" parent="0slJHiL-0B2PbUMmb_t5-18" source="zklYke0HYy3J-oZaXSR5-0" edge="1">
          <mxGeometry relative="1" as="geometry">
            <mxPoint x="440" y="290" as="targetPoint" />
            <Array as="points">
              <mxPoint x="510" y="290" />
            </Array>
          </mxGeometry>
        </mxCell>
        <mxCell id="zklYke0HYy3J-oZaXSR5-0" value="Mobile App" style="rounded=0;whiteSpace=wrap;html=1;" parent="0slJHiL-0B2PbUMmb_t5-18" vertex="1">
          <mxGeometry x="450" y="50" width="120" height="35" as="geometry" />
        </mxCell>
        <mxCell id="0slJHiL-0B2PbUMmb_t5-20" value="Telemetry Data" style="text;html=1;align=center;verticalAlign=middle;whiteSpace=wrap;rounded=0;fillColor=#CCCCCC;" parent="WIyWlLk6GJQsqaUBKTNV-1" vertex="1">
          <mxGeometry x="400" y="210" width="50" height="30" as="geometry" />
        </mxCell>
        <mxCell id="0slJHiL-0B2PbUMmb_t5-22" style="edgeStyle=orthogonalEdgeStyle;rounded=0;orthogonalLoop=1;jettySize=auto;html=1;fillColor=#CCCCCC;" parent="WIyWlLk6GJQsqaUBKTNV-1" source="0slJHiL-0B2PbUMmb_t5-26" target="0slJHiL-0B2PbUMmb_t5-18" edge="1">
          <mxGeometry relative="1" as="geometry">
            <Array as="points">
              <mxPoint x="265" y="260" />
              <mxPoint x="425" y="260" />
            </Array>
          </mxGeometry>
        </mxCell>
        <mxCell id="0slJHiL-0B2PbUMmb_t5-24" style="edgeStyle=orthogonalEdgeStyle;rounded=0;orthogonalLoop=1;jettySize=auto;html=1;entryX=0.5;entryY=0;entryDx=0;entryDy=0;" parent="WIyWlLk6GJQsqaUBKTNV-1" source="0slJHiL-0B2PbUMmb_t5-17" target="0slJHiL-0B2PbUMmb_t5-18" edge="1">
          <mxGeometry relative="1" as="geometry">
            <Array as="points">
              <mxPoint x="585" y="260" />
              <mxPoint x="425" y="260" />
            </Array>
          </mxGeometry>
        </mxCell>
        <mxCell id="0slJHiL-0B2PbUMmb_t5-28" value="" style="edgeStyle=orthogonalEdgeStyle;rounded=0;orthogonalLoop=1;jettySize=auto;html=1;fillColor=#CCCCCC;" parent="WIyWlLk6GJQsqaUBKTNV-1" source="0slJHiL-0B2PbUMmb_t5-15" edge="1">
          <mxGeometry relative="1" as="geometry">
            <mxPoint x="265" y="170" as="sourcePoint" />
            <mxPoint x="530" y="290" as="targetPoint" />
            <Array as="points">
              <mxPoint x="265" y="260" />
              <mxPoint x="425" y="260" />
            </Array>
          </mxGeometry>
        </mxCell>
        <mxCell id="0slJHiL-0B2PbUMmb_t5-26" value="Telemetry Data" style="text;html=1;align=center;verticalAlign=middle;whiteSpace=wrap;rounded=0;fillColor=#CCCCCC;" parent="WIyWlLk6GJQsqaUBKTNV-1" vertex="1">
          <mxGeometry x="240" y="210" width="50" height="30" as="geometry" />
        </mxCell>
        <mxCell id="0slJHiL-0B2PbUMmb_t5-21" value="Telemetry Data" style="text;html=1;align=center;verticalAlign=middle;whiteSpace=wrap;rounded=0;fillColor=#CCCCCC;strokeColor=#CCCCCC;shadow=0;" parent="WIyWlLk6GJQsqaUBKTNV-1" vertex="1">
          <mxGeometry x="560" y="210" width="50" height="30" as="geometry" />
        </mxCell>
        <mxCell id="0slJHiL-0B2PbUMmb_t5-34" value="Data Center" style="swimlane;whiteSpace=wrap;html=1;" parent="WIyWlLk6GJQsqaUBKTNV-1" vertex="1">
          <mxGeometry x="230" y="490" width="650" height="320" as="geometry" />
        </mxCell>
        <mxCell id="0slJHiL-0B2PbUMmb_t5-35" value="Data Ingestion" style="rounded=0;whiteSpace=wrap;html=1;" parent="0slJHiL-0B2PbUMmb_t5-34" vertex="1">
          <mxGeometry x="317" y="70" width="120" height="40" as="geometry" />
        </mxCell>
        <mxCell id="0slJHiL-0B2PbUMmb_t5-72" style="edgeStyle=orthogonalEdgeStyle;rounded=0;orthogonalLoop=1;jettySize=auto;html=1;entryX=0.5;entryY=0;entryDx=0;entryDy=0;" parent="0slJHiL-0B2PbUMmb_t5-34" source="0slJHiL-0B2PbUMmb_t5-36" target="0slJHiL-0B2PbUMmb_t5-38" edge="1">
          <mxGeometry relative="1" as="geometry" />
        </mxCell>
        <mxCell id="0slJHiL-0B2PbUMmb_t5-36" value="Data Processing" style="rounded=0;whiteSpace=wrap;html=1;" parent="0slJHiL-0B2PbUMmb_t5-34" vertex="1">
          <mxGeometry x="317" y="145" width="123" height="45" as="geometry" />
        </mxCell>
        <mxCell id="0slJHiL-0B2PbUMmb_t5-45" style="edgeStyle=orthogonalEdgeStyle;rounded=0;orthogonalLoop=1;jettySize=auto;html=1;entryX=1;entryY=0.5;entryDx=0;entryDy=0;" parent="0slJHiL-0B2PbUMmb_t5-34" source="0slJHiL-0B2PbUMmb_t5-37" target="0slJHiL-0B2PbUMmb_t5-42" edge="1">
          <mxGeometry relative="1" as="geometry" />
        </mxCell>
        <mxCell id="0slJHiL-0B2PbUMmb_t5-46" style="edgeStyle=orthogonalEdgeStyle;rounded=0;orthogonalLoop=1;jettySize=auto;html=1;entryX=1;entryY=0.5;entryDx=0;entryDy=0;" parent="0slJHiL-0B2PbUMmb_t5-34" source="0slJHiL-0B2PbUMmb_t5-37" target="0slJHiL-0B2PbUMmb_t5-44" edge="1">
          <mxGeometry relative="1" as="geometry" />
        </mxCell>
        <mxCell id="0slJHiL-0B2PbUMmb_t5-47" style="edgeStyle=orthogonalEdgeStyle;rounded=0;orthogonalLoop=1;jettySize=auto;html=1;entryX=1;entryY=0.5;entryDx=0;entryDy=0;" parent="0slJHiL-0B2PbUMmb_t5-34" source="0slJHiL-0B2PbUMmb_t5-37" target="0slJHiL-0B2PbUMmb_t5-41" edge="1">
          <mxGeometry relative="1" as="geometry" />
        </mxCell>
        <mxCell id="0slJHiL-0B2PbUMmb_t5-48" style="edgeStyle=orthogonalEdgeStyle;rounded=0;orthogonalLoop=1;jettySize=auto;html=1;entryX=1;entryY=0.5;entryDx=0;entryDy=0;" parent="0slJHiL-0B2PbUMmb_t5-34" source="0slJHiL-0B2PbUMmb_t5-37" target="0slJHiL-0B2PbUMmb_t5-40" edge="1">
          <mxGeometry relative="1" as="geometry" />
        </mxCell>
        <mxCell id="0slJHiL-0B2PbUMmb_t5-49" style="edgeStyle=orthogonalEdgeStyle;rounded=0;orthogonalLoop=1;jettySize=auto;html=1;entryX=1;entryY=0.5;entryDx=0;entryDy=0;" parent="0slJHiL-0B2PbUMmb_t5-34" source="0slJHiL-0B2PbUMmb_t5-37" target="0slJHiL-0B2PbUMmb_t5-39" edge="1">
          <mxGeometry relative="1" as="geometry" />
        </mxCell>
        <mxCell id="0slJHiL-0B2PbUMmb_t5-37" value="Data Storage" style="rounded=0;whiteSpace=wrap;html=1;" parent="0slJHiL-0B2PbUMmb_t5-34" vertex="1">
          <mxGeometry x="317" y="230" width="120" height="40" as="geometry" />
        </mxCell>
        <mxCell id="0slJHiL-0B2PbUMmb_t5-38" value="Analytics Engine" style="rounded=0;whiteSpace=wrap;html=1;" parent="0slJHiL-0B2PbUMmb_t5-34" vertex="1">
          <mxGeometry x="477" y="230" width="120" height="40" as="geometry" />
        </mxCell>
        <mxCell id="0slJHiL-0B2PbUMmb_t5-39" value="Vehicle Performance Data" style="rounded=0;whiteSpace=wrap;html=1;" parent="0slJHiL-0B2PbUMmb_t5-34" vertex="1">
          <mxGeometry x="50" y="40" width="120" height="30" as="geometry" />
        </mxCell>
        <mxCell id="0slJHiL-0B2PbUMmb_t5-40" value="Navigation Data" style="rounded=0;whiteSpace=wrap;html=1;" parent="0slJHiL-0B2PbUMmb_t5-34" vertex="1">
          <mxGeometry x="50" y="94.5" width="120" height="30" as="geometry" />
        </mxCell>
        <mxCell id="0slJHiL-0B2PbUMmb_t5-41" value="Weather Data" style="rounded=0;whiteSpace=wrap;html=1;" parent="0slJHiL-0B2PbUMmb_t5-34" vertex="1">
          <mxGeometry x="50" y="151.5" width="120" height="30" as="geometry" />
        </mxCell>
        <mxCell id="0slJHiL-0B2PbUMmb_t5-42" value="Driver Feedback" style="rounded=0;whiteSpace=wrap;html=1;" parent="0slJHiL-0B2PbUMmb_t5-34" vertex="1">
          <mxGeometry x="50" y="210" width="120" height="30" as="geometry" />
        </mxCell>
        <mxCell id="0slJHiL-0B2PbUMmb_t5-44" value="Personal data" style="rounded=0;whiteSpace=wrap;html=1;" parent="0slJHiL-0B2PbUMmb_t5-34" vertex="1">
          <mxGeometry x="50" y="270" width="120" height="30" as="geometry" />
        </mxCell>
        <mxCell id="0slJHiL-0B2PbUMmb_t5-55" value="" style="endArrow=classic;html=1;rounded=0;" parent="0slJHiL-0B2PbUMmb_t5-34" edge="1">
          <mxGeometry width="50" height="50" relative="1" as="geometry">
            <mxPoint x="380" y="110" as="sourcePoint" />
            <mxPoint x="380" y="140" as="targetPoint" />
          </mxGeometry>
        </mxCell>
        <mxCell id="0slJHiL-0B2PbUMmb_t5-56" value="" style="endArrow=classic;html=1;rounded=0;entryX=0.5;entryY=0;entryDx=0;entryDy=0;" parent="0slJHiL-0B2PbUMmb_t5-34" source="0slJHiL-0B2PbUMmb_t5-36" target="0slJHiL-0B2PbUMmb_t5-37" edge="1">
          <mxGeometry width="50" height="50" relative="1" as="geometry">
            <mxPoint x="380" y="200" as="sourcePoint" />
            <mxPoint x="430" y="150" as="targetPoint" />
          </mxGeometry>
        </mxCell>
        <mxCell id="0slJHiL-0B2PbUMmb_t5-65" value="" style="curved=1;endArrow=classic;html=1;rounded=0;entryX=0;entryY=0.5;entryDx=0;entryDy=0;" parent="WIyWlLk6GJQsqaUBKTNV-1" source="0slJHiL-0B2PbUMmb_t5-36" target="0slJHiL-0B2PbUMmb_t5-52" edge="1">
          <mxGeometry width="50" height="50" relative="1" as="geometry">
            <mxPoint x="547" y="661.5" as="sourcePoint" />
            <mxPoint x="477" y="821.5" as="targetPoint" />
            <Array as="points">
              <mxPoint x="467" y="641.5" />
              <mxPoint x="540" y="830" />
            </Array>
          </mxGeometry>
        </mxCell>
        <mxCell id="0slJHiL-0B2PbUMmb_t5-50" value="Security Layer" style="swimlane;whiteSpace=wrap;html=1;" parent="WIyWlLk6GJQsqaUBKTNV-1" vertex="1">
          <mxGeometry x="440" y="850" width="480" height="100" as="geometry" />
        </mxCell>
        <mxCell id="0slJHiL-0B2PbUMmb_t5-51" value="Firewalls" style="rounded=0;whiteSpace=wrap;html=1;" parent="0slJHiL-0B2PbUMmb_t5-50" vertex="1">
          <mxGeometry x="20" y="50" width="120" height="30" as="geometry" />
        </mxCell>
        <mxCell id="0slJHiL-0B2PbUMmb_t5-52" value="Encryption Modules" style="rounded=0;whiteSpace=wrap;html=1;" parent="0slJHiL-0B2PbUMmb_t5-50" vertex="1">
          <mxGeometry x="180" y="50" width="120" height="30" as="geometry" />
        </mxCell>
        <mxCell id="0slJHiL-0B2PbUMmb_t5-53" value="Access Control" style="rounded=0;whiteSpace=wrap;html=1;" parent="0slJHiL-0B2PbUMmb_t5-50" vertex="1">
          <mxGeometry x="340" y="50" width="120" height="30" as="geometry" />
        </mxCell>
      </root>
    </mxGraphModel>
  </diagram>
</mxfile>
